<?xml version="1.0" encoding="utf-8"?>
<!-- Generator: Adobe Illustrator 18.0.0, SVG Export Plug-In . SVG Version: 6.00 Build 0)  -->
<!DOCTYPE svg PUBLIC "-//W3C//DTD SVG 1.1//EN" "http://www.w3.org/Graphics/SVG/1.1/DTD/svg11.dtd">
<svg version="1.1" id="レイヤー_1" xmlns="http://www.w3.org/2000/svg" xmlns:xlink="http://www.w3.org/1999/xlink" x="0px"
	 y="0px" viewBox="0 0 200 144" enable-background="new 0 0 200 144" xml:space="preserve">
<path fill="#3A9FD8" d="M7,16c-0.1,0-0.3-0.1-0.4-0.2l-6.5-7c-0.2-0.2-0.2-0.5,0-0.7c0.2-0.2,0.5-0.2,0.7,0L7,14.8l6.1-6.6
	c0.2-0.2,0.5-0.2,0.7,0c0.2,0.2,0.2,0.5,0,0.7l-6.5,7C7.3,15.9,7.1,16,7,16z"/>
<path fill="#878787" d="M21,16c-0.1,0-0.3-0.1-0.4-0.2l-6.5-7c-0.2-0.2-0.2-0.5,0-0.7c0.2-0.2,0.5-0.2,0.7,0l6.1,6.6l6.1-6.6
	c0.2-0.2,0.5-0.2,0.7,0c0.2,0.2,0.2,0.5,0,0.7l-6.5,7C21.3,15.9,21.1,16,21,16z"/>
<g>
	<g>
		<g>
			<path fill="#3A9FD8" d="M0,1c0-0.6,0.4-0.8,0.8-0.4l4.3,2.9c0.5,0.3,0.5,0.8,0,1.1L0.8,7.4C0.4,7.8,0,7.6,0,7V1z"/>
		</g>
	</g>
</g>
<g>
	<g>
		<g>
			<path fill="#878787" d="M6,1c0-0.6,0.4-0.8,0.8-0.4l4.3,2.9c0.5,0.3,0.5,0.8,0,1.1L6.8,7.4C6.4,7.8,6,7.6,6,7V1z"/>
		</g>
	</g>
</g>
<g>
	<path fill="#3A9FD8" d="M0,23l7-7h5v5l-7,7L0,23z M8.9,18.1c-0.6,0-1,0.4-1,1s0.4,1,1,1c0.6,0,1-0.4,1-1S9.4,18.1,8.9,18.1z"/>
</g>
<g>
	<path fill="#878787" d="M12,23l7-7h5v5l-7,7L12,23z M20.9,18.1c-0.6,0-1,0.4-1,1s0.4,1,1,1s1-0.4,1-1S21.4,18.1,20.9,18.1z"/>
</g>
<g>
	<g>
		<g>
			<circle fill="#3A9FD8" cx="25" cy="69" r="25"/>
		</g>
	</g>
	<g>
		<g>
			<path fill="#FFFFFF" d="M30.7,61.1c0.8-0.8,1.9-1,2.5-0.3c0.6,0.6,0.5,1.8-0.3,2.5L19.2,76.9c-0.8,0.8-1.9,1-2.5,0.4
				s-0.4-1.7,0.4-2.5L30.7,61.1z"/>
		</g>
		<g>
			<path fill="#FFFFFF" d="M32.9,74.7c0.8,0.8,1,1.9,0.3,2.5s-1.8,0.5-2.5-0.3L17.1,63.2c-0.8-0.8-1-1.9-0.4-2.5
				c0.6-0.6,1.7-0.4,2.5,0.4L32.9,74.7z"/>
		</g>
	</g>
</g>
<g>
	<g>
		<g>
			<circle fill="#878787" cx="75" cy="69" r="25"/>
		</g>
	</g>
	<g>
		<g>
			<path fill="#FFFFFF" d="M80.7,61.1c0.8-0.8,1.9-1,2.5-0.3c0.6,0.6,0.5,1.8-0.3,2.5L69.2,76.9c-0.8,0.8-1.9,1-2.5,0.4
				c-0.6-0.6-0.4-1.7,0.4-2.5L80.7,61.1z"/>
		</g>
		<g>
			<path fill="#FFFFFF" d="M82.9,74.7c0.8,0.8,1,1.9,0.3,2.5s-1.8,0.5-2.5-0.3L67.1,63.2c-0.8-0.8-1-1.9-0.4-2.5
				c0.6-0.6,1.7-0.4,2.5,0.4L82.9,74.7z"/>
		</g>
	</g>
</g>
<g>
	<g>
		<path fill="#3A9FD8" d="M0,144c0-27.6,22.4-50,50-50s50,22.4,50,50C85.2,144,18,144,0,144z"/>
	</g>
	<g>
		<path fill="#FFFFFF" d="M65,132c-0.5,0-1-0.2-1.4-0.6L50,117.8l-13.6,13.6c-0.8,0.8-2,0.8-2.8,0c-0.8-0.8-0.8-2,0-2.8l15-15
			c0.8-0.8,2-0.8,2.8,0l15,15c0.8,0.8,0.8,2,0,2.8C66,131.8,65.5,132,65,132z"/>
	</g>
</g>
<g>
	<g>
		<path fill="#878787" d="M100,144c0-27,22.4-50,50-50s50,23,50,50C185.2,144,118,144,100,144z"/>
	</g>
	<g>
		<path fill="#FFFFFF" d="M165,132.3c-0.5,0-1-0.2-1.4-0.6L150,118.1l-13.6,13.6c-0.8,0.8-2,0.8-2.8,0c-0.8-0.8-0.8-2,0-2.8l15-15
			c0.8-0.8,2-0.8,2.8,0l15,15c0.8,0.8,0.8,2,0,2.8C166,132.1,165.5,132.3,165,132.3z"/>
	</g>
</g>
<g>
	<g>
		<g>
			<circle fill="#3A9FD8" cx="8" cy="36" r="8"/>
		</g>
	</g>
	<g>
		<path fill="#FFFFFF" d="M11,34c0.6,0,0.8,0.4,0.4,0.8l-2.9,4.3c-0.3,0.5-0.8,0.5-1.1,0l-2.9-4.3C4.2,34.4,4.4,34,5,34H11z"/>
	</g>
</g>
<g>
	<g>
		<g>
			<circle fill="#878787" cx="24" cy="36" r="8"/>
		</g>
		<g>
			<path fill="#FFFFFF" d="M27,34c0.5,0,0.8,0.4,0.4,0.8l-2.9,4.3c-0.3,0.5-0.8,0.5-1.1,0l-2.9-4.3C20.2,34.4,20.5,34,21,34H27z"/>
		</g>
	</g>
</g>
</svg>
