<?xml version="1.0" encoding="utf-8"?>
<!-- Generator: Adobe Illustrator 18.0.0, SVG Export Plug-In . SVG Version: 6.00 Build 0)  -->
<!DOCTYPE svg PUBLIC "-//W3C//DTD SVG 1.1//EN" "http://www.w3.org/Graphics/SVG/1.1/DTD/svg11.dtd">
<svg version="1.1" xmlns="http://www.w3.org/2000/svg" xmlns:xlink="http://www.w3.org/1999/xlink" x="0px" y="0px"
	 viewBox="0 0 500 56" style="enable-background:new 0 0 500 56;" xml:space="preserve">
<g id="レイヤー_1">
</g>
<g id="Navigation">
	<g>
		<g>
			<g>
				<g>
					<g>
						<g>
							<polygon style="fill:#3A9FD8;" points="24.277,56.043 0,42.042 0,14.026 24.256,0 48.528,14.003 48.531,42.028 							"/>
						</g>
						<g>
							<path style="fill:#3A9FD8;" d="M83.089,26.003L83.091,32c0,0,7.323,0,7.992,0c0,0.686,0,10.556,0,11.021
								c-2.523,1.35-6.216,2.112-10.205,2.112c-9.311,0-16.345-7.203-16.345-16.767c0-8.692,6.299-16.818,15.394-16.818
								c3.389,0,8.242,0.785,12.104,4.513l4.673-4.979C93.72,7.985,87.862,4.68,80.389,4.68c-15.049,0-22.806,12.274-22.806,23.699
								c0,9.98,6.401,23.006,23.421,23.006C91.351,51.385,98,47.257,98,47.257l-0.021-21.254H83.089z"/>
							<path style="fill:#3A9FD8;" d="M136.795,18.72c-0.077-3.904-1.384-12.685-14.209-12.679L106,6.048V50h7
								c0,0-0.003-17.514-0.003-18.246c0.651,0,6.528,0,6.878,0c0.217,0.322,13.223,18.222,13.223,18.222h8.263
								c0,0-14.204-18.464-14.875-19.388C132.491,29.618,136.943,24.36,136.795,18.72z M112.997,25.51
								c0-0.703-0.009-12.882-0.009-13.577c0.694,0,7.943,0,7.943,0c4.158,0,8.891,1.18,8.891,6.786c0,4.559-2.745,6.781-8.889,6.79
								C120.933,25.51,113.688,25.51,112.997,25.51z"/>
							<path style="fill:#3A9FD8;" d="M214,6.021l-30,0.014v43.941l30-0.011V44.14c0,0-23.26-0.14-24-0.14c0-0.697,0-12.441,0-13.14
								c0.724,0,20,0.14,20,0.14v-5.928c0,0-19.276,0-20,0c0-0.696-0.009-12.373-0.009-13.072C190.73,12,214,12,214,12V6.021z"/>
						</g>
					</g>
				</g>
			</g>
		</g>
		<g>
			<path style="fill:#465565;" d="M253.363,48.834c-0.544,0.237-1.036,0.46-1.475,0.666c-0.44,0.209-1.015,0.426-1.727,0.652
				c-0.603,0.189-1.258,0.349-1.964,0.483c-0.707,0.133-1.485,0.2-2.335,0.2c-1.601,0-3.056-0.226-4.365-0.675
				c-1.31-0.45-2.449-1.153-3.417-2.112c-0.949-0.939-1.69-2.133-2.224-3.58c-0.534-1.448-0.8-3.13-0.8-5.048
				c0-1.817,0.257-3.443,0.771-4.876c0.514-1.433,1.255-2.643,2.224-3.631c0.939-0.959,2.072-1.691,3.402-2.194
				c1.329-0.505,2.805-0.757,4.425-0.757c1.186,0,2.369,0.144,3.55,0.429c1.181,0.288,2.493,0.792,3.936,1.513v3.483h-0.222
				c-1.215-1.018-2.421-1.759-3.617-2.224c-1.196-0.464-2.476-0.697-3.839-0.697c-1.117,0-2.123,0.181-3.017,0.542
				c-0.894,0.36-1.692,0.922-2.394,1.683c-0.682,0.74-1.213,1.677-1.593,2.808c-0.381,1.132-0.571,2.438-0.571,3.921
				c0,1.553,0.21,2.887,0.63,4.004c0.419,1.117,0.961,2.026,1.623,2.727c0.692,0.731,1.499,1.272,2.423,1.622
				c0.924,0.351,1.9,0.527,2.928,0.527c1.413,0,2.737-0.241,3.973-0.726c1.235-0.484,2.392-1.211,3.469-2.18h0.208V48.834z"/>
			<path style="fill:#465565;" d="M267.623,36.916h-0.148c-0.415-0.099-0.818-0.171-1.208-0.215
				c-0.39-0.045-0.852-0.068-1.386-0.068c-0.86,0-1.69,0.191-2.49,0.572c-0.8,0.38-1.571,0.872-2.312,1.475v11.754h-2.787V33.878
				h2.787v2.445c1.107-0.89,2.083-1.519,2.927-1.89c0.846-0.37,1.708-0.555,2.587-0.555c0.484,0,0.835,0.011,1.052,0.037
				c0.217,0.024,0.544,0.072,0.978,0.141V36.916z"/>
			<path style="fill:#465565;" d="M284.107,42.444h-12.2c0,1.019,0.153,1.906,0.46,2.661c0.306,0.757,0.726,1.376,1.26,1.861
				c0.514,0.474,1.124,0.83,1.83,1.067c0.707,0.237,1.485,0.356,2.335,0.356c1.127,0,2.26-0.225,3.402-0.675
				c1.141-0.449,1.954-0.891,2.438-1.326h0.148v3.038c-0.939,0.395-1.897,0.726-2.876,0.994c-0.978,0.265-2.006,0.4-3.083,0.4
				c-2.747,0-4.892-0.744-6.433-2.231c-1.542-1.488-2.312-3.6-2.312-6.337c0-2.708,0.738-4.856,2.216-6.449
				c1.477-1.59,3.421-2.386,5.833-2.386c2.233,0,3.955,0.652,5.166,1.957c1.21,1.305,1.816,3.157,1.816,5.56V42.444z M281.394,40.31
				c-0.01-1.461-0.378-2.593-1.105-3.394c-0.726-0.8-1.83-1.2-3.313-1.2c-1.492,0-2.681,0.439-3.565,1.319
				c-0.885,0.88-1.386,1.971-1.504,3.275H281.394z"/>
			<path style="fill:#465565;" d="M300.591,50.435h-2.772V48.67c-0.247,0.169-0.581,0.404-1.001,0.704
				c-0.42,0.302-0.827,0.541-1.223,0.719c-0.464,0.229-0.998,0.418-1.601,0.572c-0.603,0.152-1.309,0.23-2.12,0.23
				c-1.492,0-2.757-0.494-3.795-1.482c-1.038-0.988-1.556-2.249-1.556-3.781c0-1.255,0.269-2.27,0.808-3.047
				c0.539-0.775,1.307-1.386,2.305-1.83c1.008-0.446,2.219-0.747,3.632-0.905s2.93-0.277,4.551-0.356v-0.431
				c0-0.631-0.111-1.155-0.333-1.57c-0.223-0.415-0.541-0.743-0.956-0.98c-0.395-0.226-0.87-0.38-1.423-0.459
				c-0.553-0.079-1.132-0.119-1.734-0.119c-0.731,0-1.547,0.096-2.446,0.289c-0.899,0.192-1.828,0.471-2.787,0.837h-0.148v-2.831
				c0.544-0.15,1.329-0.312,2.357-0.49c1.028-0.178,2.041-0.267,3.039-0.267c1.166,0,2.181,0.096,3.046,0.289
				c0.865,0.192,1.614,0.521,2.246,0.985c0.622,0.455,1.097,1.043,1.423,1.763c0.326,0.723,0.489,1.616,0.489,2.684V50.435z
				 M297.819,46.358v-4.609c-0.85,0.049-1.851,0.124-3.001,0.222c-1.152,0.1-2.063,0.243-2.735,0.431
				c-0.8,0.227-1.448,0.58-1.942,1.06c-0.494,0.479-0.741,1.139-0.741,1.979c0,0.949,0.287,1.662,0.86,2.142
				c0.573,0.479,1.448,0.718,2.624,0.718c0.978,0,1.873-0.191,2.683-0.57C296.376,47.349,297.127,46.892,297.819,46.358z"/>
			<path style="fill:#465565;" d="M314.555,50.287c-0.524,0.138-1.095,0.253-1.712,0.34c-0.618,0.09-1.169,0.134-1.653,0.134
				c-1.69,0-2.975-0.455-3.854-1.364c-0.88-0.909-1.319-2.366-1.319-4.372v-8.807h-1.883v-2.341h1.883v-4.759h2.787v4.759h5.751
				v2.341h-5.751v7.546c0,0.87,0.02,1.549,0.059,2.039c0.04,0.488,0.178,0.946,0.415,1.371c0.217,0.395,0.516,0.685,0.897,0.867
				c0.38,0.184,0.961,0.274,1.741,0.274c0.455,0,0.929-0.066,1.423-0.199c0.494-0.134,0.85-0.244,1.067-0.335h0.148V50.287z"/>
			<path style="fill:#465565;" d="M332.032,42.164c0,2.698-0.692,4.828-2.075,6.388c-1.383,1.563-3.237,2.344-5.559,2.344
				c-2.342,0-4.203-0.781-5.581-2.344c-1.379-1.56-2.068-3.69-2.068-6.388s0.689-4.83,2.068-6.397
				c1.378-1.566,3.239-2.349,5.581-2.349c2.322,0,4.175,0.784,5.559,2.349C331.34,37.334,332.032,39.466,332.032,42.164z
				 M329.156,42.164c0-2.144-0.42-3.738-1.26-4.78c-0.84-1.043-2.006-1.564-3.498-1.564c-1.512,0-2.686,0.521-3.521,1.564
				c-0.835,1.042-1.252,2.636-1.252,4.78c0,2.075,0.42,3.649,1.26,4.721c0.84,1.073,2.011,1.608,3.513,1.608
				c1.482,0,2.646-0.531,3.491-1.592C328.733,45.837,329.156,44.259,329.156,42.164z"/>
			<path style="fill:#465565;" d="M345.463,36.916h-0.148c-0.415-0.099-0.818-0.171-1.208-0.215
				c-0.39-0.045-0.852-0.068-1.386-0.068c-0.86,0-1.69,0.191-2.49,0.572c-0.801,0.38-1.571,0.872-2.313,1.475v11.754h-2.787V33.878
				h2.787v2.445c1.107-0.89,2.083-1.519,2.927-1.89c0.846-0.37,1.708-0.555,2.587-0.555c0.484,0,0.835,0.011,1.052,0.037
				c0.217,0.024,0.544,0.072,0.978,0.141V36.916z"/>
			<path style="fill:#465565;" d="M359.916,45.662c0,1.512-0.625,2.753-1.875,3.72c-1.25,0.97-2.957,1.454-5.121,1.454
				c-1.225,0-2.35-0.147-3.372-0.438c-1.023-0.292-1.88-0.61-2.572-0.957v-3.127h0.148c0.88,0.662,1.858,1.189,2.935,1.578
				c1.077,0.391,2.11,0.586,3.098,0.586c1.225,0,2.184-0.198,2.876-0.593c0.692-0.395,1.038-1.018,1.038-1.868
				c0-0.652-0.188-1.146-0.563-1.482c-0.375-0.336-1.097-0.622-2.164-0.86c-0.395-0.089-0.911-0.192-1.549-0.311
				c-0.637-0.119-1.218-0.247-1.741-0.387c-1.453-0.384-2.483-0.95-3.091-1.697c-0.607-0.746-0.911-1.662-0.911-2.75
				c0-0.68,0.141-1.323,0.423-1.926c0.281-0.603,0.709-1.142,1.282-1.617c0.554-0.464,1.257-0.833,2.112-1.104
				c0.855-0.272,1.811-0.408,2.869-0.408c0.988,0,1.988,0.121,3.001,0.363c1.013,0.243,1.856,0.536,2.528,0.882v2.979h-0.148
				c-0.712-0.522-1.576-0.966-2.594-1.326c-1.018-0.361-2.016-0.541-2.994-0.541c-1.018,0-1.878,0.195-2.579,0.584
				c-0.702,0.391-1.052,0.971-1.052,1.742c0,0.682,0.213,1.196,0.637,1.542c0.415,0.346,1.087,0.628,2.016,0.844
				c0.514,0.119,1.09,0.237,1.727,0.356c0.638,0.119,1.169,0.229,1.594,0.328c1.295,0.297,2.293,0.805,2.994,1.526
				C359.565,43.488,359.916,44.456,359.916,45.662z"/>
			<path style="fill:#465565;" d="M368.381,27.37l-4.017,8.287h-2.046l2.446-8.287H368.381z"/>
			<path style="fill:#465565;" d="M395.568,35.033c0,0.98-0.171,1.886-0.511,2.72c-0.342,0.836-0.819,1.56-1.43,2.173
				c-0.762,0.761-1.66,1.331-2.699,1.711c-1.036,0.381-2.346,0.57-3.928,0.57h-2.935v8.228h-2.935V28.364h5.989
				c1.324,0,2.445,0.11,3.366,0.333c0.918,0.222,1.734,0.57,2.445,1.045c0.84,0.563,1.489,1.265,1.95,2.105
				C395.338,32.686,395.568,33.75,395.568,35.033z M392.514,35.108c0-0.761-0.133-1.423-0.401-1.986
				c-0.265-0.563-0.672-1.022-1.214-1.378c-0.474-0.306-1.017-0.527-1.624-0.661c-0.608-0.133-1.376-0.201-2.305-0.201h-2.905v8.821
				h2.475c1.186,0,2.15-0.106,2.891-0.319c0.741-0.212,1.344-0.551,1.809-1.015c0.465-0.474,0.793-0.973,0.986-1.498
				C392.418,36.349,392.514,35.76,392.514,35.108z"/>
			<path style="fill:#465565;" d="M412.111,42.164c0,2.698-0.692,4.828-2.075,6.388c-1.384,1.563-3.236,2.344-5.558,2.344
				c-2.342,0-4.203-0.781-5.581-2.344c-1.379-1.56-2.068-3.69-2.068-6.388s0.689-4.83,2.068-6.397
				c1.378-1.566,3.239-2.349,5.581-2.349c2.322,0,4.175,0.784,5.558,2.349C411.419,37.334,412.111,39.466,412.111,42.164z
				 M409.237,42.164c0-2.144-0.421-3.738-1.261-4.78c-0.84-1.043-2.006-1.564-3.498-1.564c-1.512,0-2.685,0.521-3.521,1.564
				c-0.834,1.042-1.252,2.636-1.252,4.78c0,2.075,0.419,3.649,1.259,4.721c0.84,1.073,2.012,1.608,3.514,1.608
				c1.482,0,2.646-0.531,3.491-1.592C408.813,45.837,409.237,44.259,409.237,42.164z"/>
			<path style="fill:#465565;" d="M424.935,36.916h-0.148c-0.415-0.099-0.818-0.171-1.209-0.215
				c-0.39-0.045-0.853-0.068-1.386-0.068c-0.858,0-1.689,0.191-2.49,0.572c-0.799,0.38-1.57,0.872-2.312,1.475v11.754h-2.787V33.878
				h2.787v2.445c1.107-0.89,2.084-1.519,2.928-1.89c0.846-0.37,1.707-0.555,2.586-0.555c0.484,0,0.836,0.011,1.053,0.037
				c0.217,0.024,0.543,0.072,0.978,0.141V36.916z"/>
			<path style="fill:#465565;" d="M437.37,50.287c-0.524,0.138-1.094,0.253-1.711,0.34c-0.618,0.09-1.169,0.134-1.653,0.134
				c-1.69,0-2.975-0.455-3.854-1.364c-0.88-0.909-1.32-2.366-1.32-4.372v-8.807h-1.882v-2.341h1.882v-4.759h2.787v4.759h5.751v2.341
				h-5.751v7.546c0,0.87,0.02,1.549,0.059,2.039c0.039,0.488,0.178,0.946,0.415,1.371c0.217,0.395,0.517,0.685,0.898,0.867
				c0.38,0.184,0.96,0.274,1.742,0.274c0.453,0,0.928-0.066,1.423-0.199c0.493-0.134,0.848-0.244,1.067-0.335h0.147V50.287z"/>
			<path style="fill:#465565;" d="M450.858,30.068h-0.148c-0.306-0.089-0.707-0.181-1.2-0.274c-0.495-0.095-0.93-0.141-1.304-0.141
				c-1.197,0-2.064,0.264-2.602,0.793c-0.539,0.528-0.809,1.485-0.809,2.867v0.565h5.026v2.341h-4.936v14.216h-2.787V36.219h-1.883
				v-2.341h1.883v-0.549c0-1.967,0.488-3.476,1.467-4.529c0.978-1.052,2.392-1.578,4.239-1.578c0.623,0,1.183,0.03,1.683,0.089
				c0.498,0.059,0.956,0.129,1.371,0.208V30.068z"/>
			<path style="fill:#465565;" d="M466.733,42.164c0,2.698-0.692,4.828-2.075,6.388c-1.384,1.563-3.236,2.344-5.558,2.344
				c-2.342,0-4.203-0.781-5.581-2.344c-1.379-1.56-2.068-3.69-2.068-6.388s0.689-4.83,2.068-6.397
				c1.378-1.566,3.239-2.349,5.581-2.349c2.322,0,4.175,0.784,5.558,2.349C466.042,37.334,466.733,39.466,466.733,42.164z
				 M463.859,42.164c0-2.144-0.421-3.738-1.261-4.78c-0.84-1.043-2.006-1.564-3.498-1.564c-1.512,0-2.685,0.521-3.521,1.564
				c-0.834,1.042-1.252,2.636-1.252,4.78c0,2.075,0.419,3.649,1.259,4.721c0.84,1.073,2.012,1.608,3.514,1.608
				c1.482,0,2.646-0.531,3.491-1.592C463.435,45.837,463.859,44.259,463.859,42.164z"/>
			<path style="fill:#465565;" d="M472.651,50.435h-2.787V27.37h2.787V50.435z"/>
			<path style="fill:#465565;" d="M480.553,31.105h-3.143v-2.891h3.143V31.105z M480.375,50.435h-2.787V33.878h2.787V50.435z"/>
			<path style="fill:#465565;" d="M500,42.164c0,2.698-0.692,4.828-2.075,6.388c-1.384,1.563-3.236,2.344-5.558,2.344
				c-2.342,0-4.203-0.781-5.581-2.344c-1.379-1.56-2.068-3.69-2.068-6.388s0.689-4.83,2.068-6.397
				c1.378-1.566,3.239-2.349,5.581-2.349c2.322,0,4.175,0.784,5.558,2.349C499.308,37.334,500,39.466,500,42.164z M497.126,42.164
				c0-2.144-0.421-3.738-1.261-4.78c-0.84-1.043-2.006-1.564-3.498-1.564c-1.512,0-2.685,0.521-3.521,1.564
				c-0.834,1.042-1.252,2.636-1.252,4.78c0,2.075,0.419,3.649,1.259,4.721c0.84,1.073,2.012,1.608,3.514,1.608
				c1.482,0,2.646-0.531,3.491-1.592C496.702,45.837,497.126,44.259,497.126,42.164z"/>
		</g>
		<path style="fill:#3A9FD8;" d="M175.847,6.021l-29.598,0.014v43.941l29.598-0.011V44.14c0,0-23.108,0-23.847,0
			c0-0.697,0-12.441,0-13.14c0.724,0,20,0,20,0v-5.928c0,0-19.276,0-20,0c0-0.696-0.009-12.373-0.009-13.072
			c0.74,0,23.857,0,23.857,0V6.021z"/>
	</g>
</g>
</svg>
