<?xml version="1.0" encoding="utf-8"?>
<!-- Generator: Adobe Illustrator 18.0.0, SVG Export Plug-In . SVG Version: 6.00 Build 0)  -->
<!DOCTYPE svg PUBLIC "-//W3C//DTD SVG 1.1//EN" "http://www.w3.org/Graphics/SVG/1.1/DTD/svg11.dtd">
<svg version="1.1" id="レイヤー_1" xmlns="http://www.w3.org/2000/svg" xmlns:xlink="http://www.w3.org/1999/xlink" x="0px"
	 y="0px" viewBox="120.5 186.9 200 158.2" enable-background="new 120.5 186.9 200 158.2" xml:space="preserve">
<path fill="#3A9FD8" d="M127.6,202.5c-0.1,0-0.3-0.1-0.4-0.2l-6.5-7c-0.2-0.2-0.2-0.5,0-0.7c0.2-0.2,0.5-0.2,0.7,0l6.2,6.7l6.1-6.6
	c0.2-0.2,0.5-0.2,0.7,0c0.2,0.2,0.2,0.5,0,0.7l-6.5,7C127.9,202.4,127.7,202.5,127.6,202.5z"/>
<path fill="#878787" d="M141.6,202.5c-0.1,0-0.3-0.1-0.4-0.2l-6.5-7c-0.2-0.2-0.2-0.5,0-0.7c0.2-0.2,0.5-0.2,0.7,0l6.1,6.6l6.1-6.6
	c0.2-0.2,0.5-0.2,0.7,0c0.2,0.2,0.2,0.5,0,0.7l-6.5,7C141.9,202.4,141.7,202.5,141.6,202.5z"/>
<g>
	<g>
		<g>
			<path fill="#3A9FD8" d="M120.6,187.5c0-0.6,0.4-0.8,0.8-0.4l4.3,2.9c0.5,0.3,0.5,0.8,0,1.1l-4.3,2.8c-0.4,0.4-0.8,0.2-0.8-0.4
				V187.5z"/>
		</g>
	</g>
</g>
<g>
	<g>
		<g>
			<path fill="#878787" d="M126.6,187.5c0-0.6,0.4-0.8,0.8-0.4l4.3,2.9c0.5,0.3,0.5,0.8,0,1.1l-4.3,2.8c-0.4,0.4-0.8,0.2-0.8-0.4
				V187.5z"/>
		</g>
	</g>
</g>
<g>
	<path fill="#3A9FD8" d="M120.6,209.5l7-7h5v5l-7,7L120.6,209.5z M129.5,204.6c-0.6,0-1,0.4-1,1s0.4,1,1,1c0.6,0,1-0.4,1-1
		S130,204.6,129.5,204.6z"/>
</g>
<g>
	<path fill="#878787" d="M132.6,209.5l7-7h5v5l-7,7L132.6,209.5z M141.5,204.6c-0.6,0-1,0.4-1,1s0.4,1,1,1s1-0.4,1-1
		S142,204.6,141.5,204.6z"/>
</g>
<g>
	<g>
		<g>
			<circle fill="#3A9FD8" cx="145.6" cy="255.5" r="25"/>
		</g>
	</g>
	<g>
		<g>
			<path fill="#FFFFFF" d="M151.3,247.6c0.8-0.8,1.9-1,2.5-0.3c0.6,0.6,0.5,1.8-0.3,2.5l-13.7,13.6c-0.8,0.8-1.9,1-2.5,0.4
				s-0.4-1.7,0.4-2.5L151.3,247.6z"/>
		</g>
		<g>
			<path fill="#FFFFFF" d="M153.5,261.2c0.8,0.8,1,1.9,0.3,2.5c-0.7,0.6-1.8,0.5-2.5-0.3l-13.6-13.7c-0.8-0.8-1-1.9-0.4-2.5
				s1.7-0.4,2.5,0.4L153.5,261.2z"/>
		</g>
	</g>
</g>
<g>
	<g>
		<g>
			<circle fill="#878787" cx="195.6" cy="255.5" r="25"/>
		</g>
	</g>
	<g>
		<g>
			<path fill="#FFFFFF" d="M201.3,247.6c0.8-0.8,1.9-1,2.5-0.3c0.6,0.6,0.5,1.8-0.3,2.5l-13.7,13.6c-0.8,0.8-1.9,1-2.5,0.4
				s-0.4-1.7,0.4-2.5L201.3,247.6z"/>
		</g>
		<g>
			<path fill="#FFFFFF" d="M203.5,261.2c0.8,0.8,1,1.9,0.3,2.5c-0.7,0.6-1.8,0.5-2.5-0.3l-13.6-13.7c-0.8-0.8-1-1.9-0.4-2.5
				s1.7-0.4,2.5,0.4L203.5,261.2z"/>
		</g>
	</g>
</g>
<g>
	<g>
		<path fill="#3A9FD8" d="M120.6,330.5c0-27.6,22.4-50,50-50s50,22.4,50,50C205.8,330.5,138.6,330.5,120.6,330.5z"/>
	</g>
	<g>
		<path fill="#FFFFFF" d="M185.6,318.5c-0.5,0-1-0.2-1.4-0.6l-13.6-13.6L157,317.9c-0.8,0.8-2,0.8-2.8,0s-0.8-2,0-2.8l15-15
			c0.8-0.8,2-0.8,2.8,0l15,15c0.8,0.8,0.8,2,0,2.8C186.6,318.3,186.1,318.5,185.6,318.5z"/>
	</g>
</g>
<g>
	<g>
		<path fill="#878787" d="M220.6,330.5c0-27,22.4-50,50-50s50,23,50,50C305.7,330.5,238.6,330.5,220.6,330.5z"/>
	</g>
	<g>
		<path fill="#FFFFFF" d="M285.5,318.8c-0.5,0-1-0.2-1.4-0.6l-13.6-13.6l-13.6,13.6c-0.8,0.8-2,0.8-2.8,0c-0.8-0.8-0.8-2,0-2.8
			l15-15c0.8-0.8,2-0.8,2.8,0l15,15c0.8,0.8,0.8,2,0,2.8C286.6,318.6,286,318.8,285.5,318.8z"/>
	</g>
</g>
<g>
	<g>
		<g>
			<circle fill="#3A9FD8" cx="128.6" cy="222.5" r="8"/>
		</g>
	</g>
	<g>
		<path fill="#FFFFFF" d="M131.6,220.5c0.6,0,0.8,0.4,0.4,0.8l-2.9,4.3c-0.3,0.5-0.8,0.5-1.1,0l-2.9-4.3c-0.3-0.4-0.1-0.8,0.5-0.8
			H131.6z"/>
	</g>
</g>
<g>
	<g>
		<g>
			<circle fill="#878787" cx="144.6" cy="222.5" r="8"/>
		</g>
		<g>
			<path fill="#FFFFFF" d="M147.6,220.5c0.5,0,0.8,0.4,0.4,0.8l-2.9,4.3c-0.3,0.5-0.8,0.5-1.1,0l-2.9-4.3c-0.3-0.4,0-0.8,0.5-0.8
				H147.6z"/>
		</g>
	</g>
</g>
<g>
	<path fill="#3A9FD8" d="M135.6,344.8c0,0.2-0.1,0.3-0.3,0.3h-14.4c-0.2,0-0.3-0.2-0.3-0.3v-10.4c0-0.2,0.1-0.3,0.3-0.3h8.4
		c0.2,0,0.3,0.2,0.3,0.3v0.7c0,0.2-0.2,0.3-0.3,0.3h-7.1c-0.2,0-0.3,0.2-0.3,0.3v7.8c0,0.2,0.1,0.3,0.3,0.3H134
		c0.2,0,0.3-0.2,0.3-0.3V339c0-0.2,0.1-0.3,0.3-0.3h0.7c0.2,0,0.3,0.2,0.3,0.3V344.8z"/>
	<g>
		<path fill="#3A9FD8" d="M136.9,333.5c0.1,0.1,0.1,0.3,0,0.5l-6.9,7c-0.1,0.1-0.3,0.1-0.5,0l-1.4-1.5c-0.1-0.1-0.1-0.3,0-0.5
			l6.9-6.9c0.1-0.1,0.3-0.1,0.5,0L136.9,333.5z"/>
		<path fill="#3A9FD8" d="M132.5,332.2c-0.3-0.3-0.2-0.5,0.2-0.6l5.4-1.1c0.4-0.1,0.6,0.2,0.5,0.5l-1.1,5.4
			c-0.1,0.4-0.3,0.4-0.6,0.2L132.5,332.2z"/>
	</g>
	<path fill="#878787" d="M153.6,344.8c0,0.2-0.1,0.3-0.3,0.3h-14.4c-0.2,0-0.3-0.2-0.3-0.3v-10.4c0-0.2,0.1-0.3,0.3-0.3h8.4
		c0.2,0,0.3,0.2,0.3,0.3v0.7c0,0.2-0.1,0.3-0.3,0.3h-7.1c-0.2,0-0.3,0.2-0.3,0.3v7.8c0,0.2,0.1,0.3,0.3,0.3H152
		c0.2,0,0.3-0.2,0.3-0.3V339c0-0.2,0.1-0.3,0.3-0.3h0.7c0.2,0,0.3,0.2,0.3,0.3V344.8z"/>
	<g>
		<path fill="#878787" d="M154.8,333.5c0.1,0.1,0.1,0.3,0,0.5l-6.9,7c-0.1,0.1-0.3,0.1-0.5,0l-1.3-1.5c-0.1-0.1-0.1-0.3,0-0.5
			l6.9-6.9c0.1-0.1,0.3-0.1,0.5,0L154.8,333.5z"/>
		<path fill="#878787" d="M150.4,332.2c-0.3-0.3-0.2-0.5,0.2-0.6l5.4-1.1c0.4-0.1,0.6,0.2,0.5,0.5l-1.1,5.4
			c-0.1,0.4-0.3,0.4-0.6,0.2L150.4,332.2z"/>
	</g>
</g>
</svg>
